PathFileType	4	(X/Y/Z)	s09c0401.trc
DataRate	CameraRate	NumFrames	NumMarkers	Units	OrigDataRate	OrigDataStartFrame	OrigNumFrames
200	200	4	50	mm	200	250	2000
Frame#	Time	racr			lacr			c7			jug			rlel			rdr			llel			ldr			s2			lic			ric			lasi			rasi			rpsi			lpsi			rgt			lgt			rth1			rth2			rth3			rth4			rlfc			rmfc			rsh1			rsh2			rsh3			rsh4			rlmal			rmmal			rcal			rtoe			rmt5			lth1			lth2			lth4			lth3			llfc			lmfc			llmal			lmmal			lcal			lmt5			lsh1			lsh2			lsh3			lsh4			ltoe			SBIKE			LBIKE			RBIKE			
		X1	Y1	Z1	X2	Y2	Z2	X3	Y3	Z3	X4	Y4	Z4	X5	Y5	Z5	X6	Y6	Z6	X7	Y7	Z7	X8	Y8	Z8	X9	Y9	Z9	X10	Y10	Z10	X11	Y11	Z11	X12	Y12	Z12	X13	Y13	Z13	X14	Y14	Z14	X15	Y15	Z15	X16	Y16	Z16	X17	Y17	Z17	X18	Y18	Z18	X19	Y19	Z19	X20	Y20	Z20	X21	Y21	Z21	X22	Y22	Z22	X23	Y23	Z23	X24	Y24	Z24	X25	Y25	Z25	X26	Y26	Z26	X27	Y27	Z27	X28	Y28	Z28	X29	Y29	Z29	X30	Y30	Z30	X31	Y31	Z31	X32	Y32	Z32	X33	Y33	Z33	X34	Y34	Z34	X35	Y35	Z35	X36	Y36	Z36	X37	Y37	Z37	X38	Y38	Z38	X39	Y39	Z39	X40	Y40	Z40	X41	Y41	Z41	X42	Y42	Z42	X43	Y43	Z43	X44	Y44	Z44	X45	Y45	Z45	X46	Y46	Z46	X47	Y47	Z47	X48	Y48	Z48	X49	Y49	Z49	X50	Y50	Z50	
250	1.2500	575.428248	1288.038974	-115.346172	575.841070	1265.296162	-416.560388	0.000000	0.000000	-0.000000	525.413343	1165.498001	-257.709365	506.448625	1072.638517	28.108795	680.116283	908.749896	-36.626311	447.834303	1028.353118	-526.819574	652.089981	903.533729	-459.064859	49.400225	1184.664585	-231.943726	177.196233	1148.160388	-382.279722	203.457890	1149.856454	-99.379929	200.793826	1080.221315	-364.083995	228.629228	1082.613288	-117.309084	91.443651	1207.148209	-176.090802	83.581904	1213.212596	-286.617805	150.601853	1016.575979	-45.605403	117.770910	1037.531688	-427.834625	232.147895	904.256450	-56.360790	294.494670	845.225029	-71.002517	317.419416	759.313794	-80.767498	317.750508	860.900280	-94.506418	345.803955	663.980116	-115.941504	320.787048	652.697822	-211.951677	262.062057	603.346423	-82.729636	216.609168	526.928062	-94.338278	138.984317	484.825102	-90.892512	233.964798	512.119811	-127.414192	63.968899	418.601744	-88.829958	69.781372	426.223717	-169.055011	-26.181120	415.841483	-127.629529	214.103392	305.873152	-123.671273	130.838865	322.981217	-60.320604	218.489199	942.680653	-425.897568	297.475644	910.874167	-419.871908	319.628040	938.165505	-405.182534	352.393737	839.081838	-416.218415	414.547628	760.642797	-399.273046	433.285993	750.944584	-300.555015	353.302129	401.512804	-405.632411	368.511143	411.863582	-334.889086	284.478663	360.846955	-369.395035	453.067866	324.481995	-433.995005	394.582756	663.547676	-420.951261	404.582737	577.373119	-412.764578	368.719456	496.029864	-411.543034	429.860896	576.199731	-382.325426	544.392813	345.562166	-366.049167	-65.105388	853.078378	-240.564178	21.154848	83.940716	-442.055823	21.108362	83.978460	-43.969105	
251	1.2550	575.775183	1287.861701	-115.360630	576.091691	1265.140480	-416.647506	0.000000	0.000000	-0.000000	525.673031	1165.378635	-257.764348	506.552178	1072.424390	28.100621	680.149185	908.739387	-36.631998	447.886252	1028.241039	-526.829514	652.200472	903.482595	-458.862859	49.684328	1184.721871	-231.925367	177.335485	1148.105298	-382.168817	203.753650	1149.833471	-99.397886	201.038956	1080.198128	-364.080730	228.862344	1082.608352	-117.337167	91.764926	1207.199089	-176.103284	83.858824	1213.269542	-286.650156	150.814649	1016.653125	-45.379128	117.991541	1037.626492	-427.858335	232.343515	904.322360	-56.364915	294.659990	845.231046	-71.048208	317.575892	759.343236	-80.820465	317.912999	860.908790	-94.525146	345.923889	663.961795	-115.979266	320.902045	652.690901	-211.996874	262.158949	603.361126	-82.765778	216.713722	526.957234	-94.339620	139.032840	484.872891	-90.893348	234.045533	512.139794	-127.433740	64.020355	418.678157	-88.847508	69.832306	426.261114	-169.064515	-26.138982	415.956943	-127.622990	214.104085	305.892705	-123.659903	130.848049	323.035359	-60.318463	218.631517	942.751812	-425.934298	297.620832	910.913567	-419.854865	319.795125	938.196516	-405.146903	352.508674	839.109836	-416.227804	414.643072	760.609375	-399.291673	433.394000	750.875837	-300.598896	353.347100	401.491285	-405.618387	368.546461	411.833104	-334.900474	284.497557	360.859703	-369.399468	453.072684	324.429361	-433.990355	394.667927	663.517838	-420.946649	404.652327	577.366320	-412.777387	368.767733	496.011100	-411.540823	429.947902	576.169762	-382.325848	544.413519	345.495755	-366.067977	-65.101115	853.072397	-240.564240	21.146339	83.947654	-442.050045	21.108325	83.989743	-43.965243	
252	1.2600	576.097101	1287.739342	-115.383887	576.333464	1265.030814	-416.737343	0.000000	0.000000	-0.000000	525.966635	1165.252480	-257.794358	506.685299	1072.426231	28.170806	680.167547	908.740752	-36.620415	447.981335	1028.136447	-526.817765	652.340037	903.412406	-458.537142	49.941521	1184.791993	-231.896602	177.475463	1148.045602	-382.105846	204.068612	1149.834398	-99.424020	201.266765	1080.132499	-364.056860	229.113891	1082.592139	-117.325288	92.046298	1207.248439	-176.084958	84.125053	1213.351325	-286.652473	151.002085	1016.696160	-45.376141	118.205003	1037.733530	-427.867730	232.531858	904.363822	-56.387487	294.804346	845.254336	-71.094444	317.698389	759.346523	-80.857694	318.073879	860.890185	-94.552048	346.024943	663.966097	-116.028722	320.968509	652.701936	-212.068144	262.248547	603.372656	-82.800875	216.760725	526.985044	-94.384190	139.095711	484.930863	-90.899319	234.091201	512.161149	-127.470097	64.061439	418.736974	-88.875066	69.876546	426.310088	-169.051815	-26.095544	416.048729	-127.628536	214.127278	305.897279	-123.677898	130.859364	323.101837	-60.329100	218.780603	942.822263	-425.925703	297.773410	910.963393	-419.843115	319.938645	938.263909	-405.141602	352.648746	839.138713	-416.223715	414.776083	760.596276	-399.311742	433.502328	750.874577	-300.586964	353.374642	401.484566	-405.637334	368.601100	411.825150	-334.878381	284.530190	360.868132	-369.412427	453.095497	324.366671	-434.010330	394.748714	663.498290	-420.955488	404.719278	577.337766	-412.771877	368.834788	496.004002	-411.550490	430.006077	576.146794	-382.335828	544.418838	345.420661	-366.078879	-65.106127	853.078133	-240.564758	21.153206	83.935941	-442.051390	21.093575	83.994528	-43.976712	
253	1.2650	576.423487	1287.613782	-115.422058	576.614392	1264.945750	-416.792160	0.000000	0.000000	-0.000000	526.280663	1165.144424	-257.871962	506.802125	1072.418303	28.239492	680.213844	908.756871	-36.584492	448.158526	1028.023151	-526.825097	652.469119	903.320168	-458.154935	50.198710	1184.875623	-231.890277	177.763320	1148.057512	-382.069043	204.342048	1149.829483	-99.441594	201.477249	1080.103592	-364.044244	229.350683	1082.572262	-117.314795	92.304132	1207.305606	-176.064744	84.436102	1213.341284	-286.669289	151.193520	1016.735402	-45.410791	118.421333	1037.825191	-427.875569	232.712894	904.384838	-56.376632	294.964626	845.232218	-71.171503	317.823029	759.346683	-80.902629	318.225624	860.893881	-94.566496	346.149736	663.958504	-116.074382	321.047801	652.706121	-212.114840	262.320498	603.386279	-82.826835	216.813675	527.027266	-94.424067	139.149671	484.979186	-90.924382	234.144046	512.196017	-127.493397	64.093534	418.783089	-88.906041	69.908152	426.349623	-169.076293	-26.052268	416.150983	-127.634049	214.105665	305.925187	-123.669675	130.863008	323.142585	-60.325580	218.961145	942.897701	-425.926216	297.909045	911.017567	-419.824459	320.095805	938.307082	-405.098158	352.779646	839.170429	-416.235905	414.881327	760.581115	-399.259839	433.597627	750.887898	-300.579037	353.407702	401.451106	-405.611609	368.596133	411.817014	-334.887952	284.550573	360.884863	-369.408566	453.102333	324.313235	-434.010255	394.851758	663.472991	-420.939212	404.812833	577.324855	-412.756761	368.888192	495.984475	-411.548151	430.082102	576.124686	-382.342988	544.441796	345.369249	-366.089750	-65.098996	853.068207	-240.552359	21.122728	83.836090	-442.143574	21.102832	83.977454	-43.960528	
